<?xml version="1.0" encoding="UTF-8" standalone="no"?>
<!DOCTYPE svg PUBLIC "-//W3C//DTD SVG 1.1//EN" "http://www.w3.org/Graphics/SVG/1.1/DTD/svg11.dtd">
<svg width="100%" height="100%" viewBox="0 0 40 40" version="1.1" xmlns="http://www.w3.org/2000/svg" xmlns:xlink="http://www.w3.org/1999/xlink" xml:space="preserve" xmlns:serif="http://www.serif.com/" style="fill-rule:evenodd;clip-rule:evenodd;stroke-linejoin:round;stroke-miterlimit:2;">
    <g id="Icon" transform="matrix(1.73618,0,0,1.73618,-24.917,-35.5577)">
        <path d="M22.573,26.987C22.6,26.915 23.282,25.545 24.515,24.554L24.517,24.552C25.218,23.99 26.112,23.584 26.984,23.268C27.936,22.923 30.228,22.482 30.228,22.482C30.228,22.482 28.703,25.452 28.703,25.452C28.288,26.261 28.415,27.317 29.067,27.957L29.069,27.958C29.532,28.414 30.086,28.721 30.57,29.155L30.632,29.213C30.866,29.447 31.112,29.686 31.321,29.954L31.34,29.977L31.341,29.979L31.348,29.987L31.35,29.993L31.361,30.006L31.363,30.009L31.384,30.038L31.385,30.039L31.393,30.051C31.466,30.157 31.888,30.783 32.078,31.18L32.235,31.512C32.851,33.04 32.773,34.733 32.108,36.186C33.383,35.6 34.562,34.841 35.614,33.937C34.364,36.284 32.291,38.127 29.78,39.08C29.66,39.326 29.517,39.558 29.354,39.775C30.802,39.431 32.17,38.877 33.422,38.148C31.563,40.216 28.868,41.518 25.871,41.518C22.874,41.518 20.179,40.216 18.32,38.148C19.573,38.877 20.94,39.431 22.388,39.775C22.225,39.558 22.083,39.326 21.962,39.08C19.452,38.128 17.379,36.284 16.129,33.937C17.259,34.908 18.535,35.713 19.92,36.314C19.689,35.873 19.491,35.392 19.374,34.921C19.226,34.462 19.161,34.005 19.106,33.547L19.098,33.456C18.974,31.381 20.285,28.55 22.421,27.341L22.588,26.941L22.572,26.989L22.573,26.987Z" style="fill:url(#_Linear1);fill-rule:nonzero;"/>
        <g transform="matrix(0.750768,0,0,0.750768,16.8702,22.501)">
            <path d="M17.66,11.2C17.43,10.9 17.15,10.64 16.89,10.38C16.22,9.78 15.46,9.35 14.82,8.72C13.33,7.26 13,4.85 13.95,3C13,3.23 12.17,3.75 11.46,4.32C8.87,6.4 7.85,10.07 9.07,13.22C9.11,13.32 9.15,13.42 9.15,13.55C9.15,13.77 9,13.97 8.8,14.05C8.57,14.15 8.33,14.09 8.14,13.93C8.08,13.88 8.04,13.83 8,13.76C6.87,12.33 6.69,10.28 7.45,8.64C5.78,10 4.87,12.3 5,14.47C5.06,14.97 5.12,15.47 5.29,15.97C5.43,16.57 5.7,17.17 6,17.7C7.08,19.43 8.95,20.67 10.96,20.92C13.1,21.19 15.39,20.8 17.03,19.32C18.86,17.66 19.5,15 18.56,12.72L18.43,12.46C18.22,12 17.66,11.2 17.66,11.2M14.5,17.5C14.22,17.74 13.76,18 13.4,18.1C12.28,18.5 11.16,17.94 10.5,17.28C11.69,17 12.4,16.12 12.61,15.23C12.78,14.43 12.46,13.77 12.33,13C12.21,12.26 12.23,11.63 12.5,10.94C12.69,11.32 12.89,11.7 13.13,12C13.9,13 15.11,13.44 15.37,14.8C15.41,14.94 15.43,15.08 15.43,15.23C15.46,16.05 15.1,16.95 14.5,17.5Z" style="fill:white;fill-rule:nonzero;"/>
        </g>
    </g>
    <defs>
        <linearGradient id="_Linear1" x1="0" y1="0" x2="1" y2="0" gradientUnits="userSpaceOnUse" gradientTransform="matrix(1.16559e-15,-19.0356,19.0356,1.16559e-15,30.228,41.5178)"><stop offset="0" style="stop-color:rgb(255,184,0);stop-opacity:1"/><stop offset="0.57" style="stop-color:rgb(255,96,46);stop-opacity:1"/><stop offset="1" style="stop-color:rgb(255,56,67);stop-opacity:1"/></linearGradient>
    </defs>
</svg>
